<svg width="30" height="35" viewBox="0 0 30 40" fill="none" xmlns="http://www.w3.org/2000/svg">
    <path
        d="M7.5 27.3259C3.01829 24.7946 0 20.0625 0 14.6429C0 6.55804 6.71799 0 15 0C23.282 0 30 6.55804 30 14.6429C30 20.0625 26.9817 24.7946 22.5 27.3259V32.5C22.5 33.2902 21.846 33.9286 21.0366 33.9286H8.96342C8.15396 33.9286 7.5 33.2902 7.5 32.5V27.3259ZM9.5122 36.7857H20.4878C20.689 36.7857 20.8537 36.9464 20.8537 37.1429V38.5714C20.8537 39.3616 20.1997 40 19.3902 40H10.6098C9.80031 40 9.14634 39.3616 9.14634 38.5714V37.1429C9.14634 36.9464 9.31098 36.7857 9.5122 36.7857Z"
        fill="#00FF00" fill-opacity="0.7" />
</svg>