<svg width="66" height="62" viewBox="0 0 66 62" fill="none" xmlns="http://www.w3.org/2000/svg">
    <path
        d="M33 59.2105C49.5684 59.2105 63 46.6272 63 31.1053C63 15.5831 49.5684 3 33 3C16.4314 3 3 15.5831 3 31.1053C3 46.6272 16.4314 59.2105 33 59.2105Z"
        stroke="#00FF00" stroke-width="4.59" stroke-linecap="round" stroke-linejoin="round" />
    <path
        d="M40.0001 50.779V45.5429C40.0751 44.6731 39.9464 43.7985 39.6221 42.9775C39.2981 42.1565 38.786 41.4078 38.1203 40.7814C44.4002 40.1428 51.0002 37.9717 51.0002 28.0106C50.9996 25.4633 49.9256 23.0138 48.0002 21.169C48.9119 18.9405 48.8474 16.4773 47.8202 14.291C47.8202 14.291 45.4601 13.6525 40.0001 16.9911C35.4161 15.8578 30.5843 15.8578 26.0002 16.9911C20.5402 13.6525 18.1802 14.291 18.1802 14.291C17.1529 16.4773 17.0885 18.9405 18.0002 21.169C16.0604 23.0275 14.9852 25.4991 15.0002 28.0651C15.0002 37.9534 21.6002 40.1245 27.8801 40.8359C27.2222 41.4562 26.7147 42.1959 26.3908 43.007C26.0669 43.8178 25.9338 44.6818 26.0002 45.5429V50.779"
        stroke="#00FF00" stroke-width="4.59" stroke-linecap="round" stroke-linejoin="round" />
    <path d="M26 47.1303C20 48.9057 15 47.1303 12 41.6571" stroke="#00FF00" stroke-width="4.59"
        stroke-linecap="round" stroke-linejoin="round" />
</svg>
  