<svg width="60" height="60" viewBox="0 0 60 60" fill="none" xmlns="http://www.w3.org/2000/svg">
<path d="M36.4158 24.6111C32.115 24.6111 28.6053 28.1209 28.6053 32.4217C28.6053 36.7224 32.115 40.2322 36.4158 40.2322C40.7166 40.2322 44.2264 36.7224 44.2264 32.4217C44.2264 28.1209 40.7166 24.6111 36.4158 24.6111ZM59.8416 32.4217C59.8416 29.1873 59.8709 25.9822 59.6892 22.7537C59.5076 19.0037 58.6521 15.6756 55.9099 12.9334C53.1619 10.1853 49.8396 9.33573 46.0896 9.15409C42.8553 8.97245 39.6502 9.00174 36.4217 9.00174C33.1873 9.00174 29.9822 8.97245 26.7537 9.15409C23.0037 9.33573 19.6756 10.1912 16.9334 12.9334C14.1853 15.6814 13.3357 19.0037 13.1541 22.7537C12.9724 25.9881 13.0017 29.1931 13.0017 32.4217C13.0017 35.6502 12.9724 38.8611 13.1541 42.0896C13.3357 45.8396 14.1912 49.1678 16.9334 51.9099C19.6814 54.658 23.0037 55.5076 26.7537 55.6892C29.9881 55.8709 33.1931 55.8416 36.4217 55.8416C39.656 55.8416 42.8611 55.8709 46.0896 55.6892C49.8396 55.5076 53.1678 54.6521 55.9099 51.9099C58.658 49.1619 59.5076 45.8396 59.6892 42.0896C59.8767 38.8611 59.8416 35.656 59.8416 32.4217ZM36.4158 44.4392C29.7654 44.4392 24.3982 39.0721 24.3982 32.4217C24.3982 25.7713 29.7654 20.4041 36.4158 20.4041C43.0662 20.4041 48.4334 25.7713 48.4334 32.4217C48.4334 39.0721 43.0662 44.4392 36.4158 44.4392ZM48.9256 22.7185C47.3728 22.7185 46.1189 21.4646 46.1189 19.9119C46.1189 18.3592 47.3728 17.1053 48.9256 17.1053C50.4783 17.1053 51.7322 18.3592 51.7322 19.9119C51.7327 20.2806 51.6604 20.6458 51.5195 20.9865C51.3786 21.3272 51.1719 21.6368 50.9112 21.8975C50.6505 22.1582 50.3409 22.365 50.0002 22.5058C49.6595 22.6467 49.2943 22.719 48.9256 22.7185Z" fill="black"/>
</svg>
