<svg width="60" height="60" viewBox="0 0 60 60" fill="none" xmlns="http://www.w3.org/2000/svg">
    <path
        d="M29.9998 17.9824C23.3494 17.9824 17.9822 23.3496 17.9822 30C17.9822 36.6504 23.3494 42.0176 29.9998 42.0176C36.6502 42.0176 42.0174 36.6504 42.0174 30C42.0174 23.3496 36.6502 17.9824 29.9998 17.9824ZM29.9998 37.8105C25.699 37.8105 22.1892 34.3008 22.1892 30C22.1892 25.6992 25.699 22.1895 29.9998 22.1895C34.3006 22.1895 37.8103 25.6992 37.8103 30C37.8103 34.3008 34.3006 37.8105 29.9998 37.8105ZM42.5096 14.6895C40.9568 14.6895 39.7029 15.9434 39.7029 17.4961C39.7029 19.0488 40.9568 20.3027 42.5096 20.3027C44.0623 20.3027 45.3162 19.0547 45.3162 17.4961C45.3167 17.1274 45.2444 16.7622 45.1035 16.4215C44.9626 16.0808 44.7559 15.7712 44.4952 15.5105C44.2345 15.2498 43.9249 15.043 43.5842 14.9022C43.2434 14.7613 42.8783 14.689 42.5096 14.6895ZM53.4256 30C53.4256 26.7656 53.4549 23.5605 53.2732 20.332C53.0916 16.582 52.2361 13.2539 49.4939 10.5117C46.7459 7.76367 43.4236 6.91407 39.6736 6.73243C36.4392 6.55078 33.2342 6.58008 30.0056 6.58008C26.7713 6.58008 23.5662 6.55078 20.3377 6.73243C16.5877 6.91407 13.2596 7.76953 10.5174 10.5117C7.76932 13.2598 6.91971 16.582 6.73807 20.332C6.55643 23.5664 6.58573 26.7715 6.58573 30C6.58573 33.2285 6.55643 36.4395 6.73807 39.668C6.91971 43.418 7.77518 46.7461 10.5174 49.4883C13.2654 52.2363 16.5877 53.0859 20.3377 53.2676C23.5721 53.4492 26.7771 53.4199 30.0056 53.4199C33.24 53.4199 36.4451 53.4492 39.6736 53.2676C43.4236 53.0859 46.7517 52.2305 49.4939 49.4883C52.242 46.7402 53.0916 43.418 53.2732 39.668C53.4607 36.4395 53.4256 33.2344 53.4256 30ZM48.2693 43.8164C47.8416 44.8828 47.326 45.6797 46.4998 46.5C45.6736 47.3262 44.8826 47.8418 43.8162 48.2695C40.7342 49.4941 33.4158 49.2188 29.9998 49.2188C26.5838 49.2188 19.2596 49.4941 16.1775 48.2754C15.1111 47.8477 14.3142 47.332 13.4939 46.5059C12.6678 45.6797 12.1521 44.8887 11.7244 43.8223C10.5056 40.7344 10.781 33.416 10.781 30C10.781 26.584 10.5056 19.2598 11.7244 16.1777C12.1521 15.1113 12.6678 14.3145 13.4939 13.4941C14.3201 12.6738 15.1111 12.1523 16.1775 11.7246C19.2596 10.5059 26.5838 10.7813 29.9998 10.7813C33.4158 10.7813 40.74 10.5059 43.8221 11.7246C44.8885 12.1523 45.6853 12.668 46.5056 13.4941C47.3318 14.3203 47.8474 15.1113 48.2752 16.1777C49.4939 19.2598 49.2185 26.584 49.2185 30C49.2185 33.416 49.4939 40.7344 48.2693 43.8164Z"
        fill="#00FF00" />
</svg>