<svg width="60" height="60" viewBox="0 0 60 60" fill="none" xmlns="http://www.w3.org/2000/svg">
    <path fill-rule="evenodd" clip-rule="evenodd"
        d="M30 0C13.4469 0 0 13.4469 0 30C0 46.5531 13.4469 60 30 60C46.5531 60 60 46.5531 60 30C60 13.4469 46.5531 0 30 0ZM30 2.60873C45.1433 2.60873 57.3913 14.8568 57.3913 30C57.3913 45.1432 45.1432 57.3913 30 57.3913C27.23 57.3913 24.5579 56.9768 22.0389 56.2143C23.1609 54.3384 24.6096 51.6569 25.1851 49.4429C25.5271 48.1303 26.9328 42.776 26.9328 42.776C27.8463 44.5201 30.5156 45.9961 33.3577 45.9961C41.8149 45.9961 47.9119 38.2183 47.9119 28.553C47.9119 19.2868 40.3505 12.3556 30.6216 12.3556C18.5176 12.3556 12.0933 20.4794 12.0933 29.3249C12.0933 33.4387 14.2812 38.5594 17.7845 40.1902C18.3151 40.4372 18.6001 40.3302 18.722 39.8158C18.8158 39.4253 19.2891 37.5219 19.5015 36.6364C19.5695 36.3538 19.5366 36.1096 19.3079 35.8314C18.1484 34.4249 17.2189 31.8414 17.2189 29.4319C17.2189 23.2461 21.9019 17.2597 29.8803 17.2597C36.7692 17.2597 41.5939 21.9559 41.5939 28.6702C41.5939 36.2559 37.7636 41.5124 32.7794 41.5124C30.0268 41.5124 27.9657 39.2352 28.6269 36.4428C29.4196 33.11 30.9502 29.5134 30.9502 27.1059C30.9502 24.9531 29.7949 23.1573 27.4015 23.1573C24.5874 23.1573 22.3268 26.0667 22.3268 29.9669C22.3268 32.4487 23.1674 34.1296 23.1674 34.1296C23.1674 34.1296 20.3877 45.8825 19.8785 48.0698C19.3683 50.2556 19.505 53.1996 19.7155 55.3915C9.67975 51.3293 2.60873 41.5035 2.60873 30C2.60873 14.8567 14.8567 2.60873 30 2.60873Z"
        fill="#00FF00" />
</svg>